<svg width="24" height="25" viewBox="0 0 24 25" fill="none" xmlns="http://www.w3.org/2000/svg">
<path d="M12 22C10.6975 22 9.46833 21.7503 8.3125 21.251C7.15667 20.7517 6.14867 20.0718 5.2885 19.2115C4.42817 18.3513 3.74833 17.3433 3.249 16.1875C2.74967 15.0317 2.5 13.8025 2.5 12.5C2.5 11.1872 2.74967 9.95542 3.249 8.80475C3.74833 7.65408 4.42817 6.64867 5.2885 5.7885C6.14867 4.92817 7.15667 4.24833 8.3125 3.749C9.46833 3.24967 10.6975 3 12 3C13.3128 3 14.5446 3.24967 15.6953 3.749C16.8459 4.24833 17.8513 4.92817 18.7115 5.7885C19.5718 6.64867 20.2517 7.65408 20.751 8.80475C21.2503 9.95542 21.5 11.1872 21.5 12.5C21.5 13.8025 21.2503 15.0317 20.751 16.1875C20.2517 17.3433 19.5718 18.3513 18.7115 19.2115C17.8513 20.0718 16.8459 20.7517 15.6953 21.251C14.5446 21.7503 13.3128 22 12 22ZM12 20.4788C12.5103 19.8019 12.9398 19.1192 13.2885 18.4307C13.6372 17.7422 13.9212 16.9897 14.1405 16.173H9.8595C10.0917 17.0153 10.3789 17.7808 10.7213 18.4693C11.0634 19.1578 11.4897 19.8276 12 20.4788ZM10.0635 20.2038C9.68017 19.6538 9.33592 19.0285 9.03075 18.328C8.72558 17.6273 8.48842 16.909 8.31925 16.173H4.927C5.45517 17.2115 6.1635 18.084 7.052 18.7905C7.9405 19.4968 8.94433 19.9679 10.0635 20.2038ZM13.9365 20.2038C15.0557 19.9679 16.0595 19.4968 16.948 18.7905C17.8365 18.084 18.5448 17.2115 19.073 16.173H15.6807C15.4794 16.9153 15.2262 17.6368 14.921 18.3375C14.616 19.0382 14.2878 19.6603 13.9365 20.2038ZM4.298 14.673H8.0155C7.95267 14.3013 7.90708 13.9369 7.87875 13.5798C7.85058 13.2228 7.8365 12.8628 7.8365 12.5C7.8365 12.1372 7.85058 11.7773 7.87875 11.4202C7.90708 11.0631 7.95267 10.6987 8.0155 10.327H4.298C4.20183 10.6667 4.12817 11.0198 4.077 11.3865C4.02567 11.7532 4 12.1243 4 12.5C4 12.8757 4.02567 13.2468 4.077 13.6135C4.12817 13.9802 4.20183 14.3333 4.298 14.673ZM9.51525 14.673H14.4848C14.5474 14.3013 14.5929 13.9402 14.6212 13.5895C14.6494 13.2388 14.6635 12.8757 14.6635 12.5C14.6635 12.1243 14.6494 11.7612 14.6212 11.4105C14.5929 11.0598 14.5474 10.6987 14.4848 10.327H9.51525C9.45258 10.6987 9.40708 11.0598 9.37875 11.4105C9.35058 11.7612 9.3365 12.1243 9.3365 12.5C9.3365 12.8757 9.35058 13.2388 9.37875 13.5895C9.40708 13.9402 9.45258 14.3013 9.51525 14.673ZM15.9845 14.673H19.702C19.7982 14.3333 19.8718 13.9802 19.923 13.6135C19.9743 13.2468 20 12.8757 20 12.5C20 12.1243 19.9743 11.7532 19.923 11.3865C19.8718 11.0198 19.7982 10.6667 19.702 10.327H15.9845C16.0473 10.6987 16.0929 11.0631 16.1212 11.4202C16.1494 11.7773 16.1635 12.1372 16.1635 12.5C16.1635 12.8628 16.1494 13.2228 16.1212 13.5798C16.0929 13.9369 16.0473 14.3013 15.9845 14.673ZM15.6807 8.827H19.073C18.5385 7.77567 17.835 6.90317 16.9625 6.2095C16.09 5.516 15.0813 5.04167 13.9365 4.7865C14.3198 5.3685 14.6608 6.00508 14.9595 6.69625C15.2583 7.38725 15.4987 8.0975 15.6807 8.827ZM9.8595 8.827H14.1405C13.9083 7.991 13.6163 7.22075 13.2645 6.51625C12.9125 5.81175 12.491 5.14675 12 4.52125C11.509 5.14675 11.0875 5.81175 10.7355 6.51625C10.3837 7.22075 10.0917 7.991 9.8595 8.827ZM4.927 8.827H8.31925C8.50125 8.0975 8.74167 7.38725 9.0405 6.69625C9.33917 6.00508 9.68017 5.3685 10.0635 4.7865C8.91217 5.04167 7.90192 5.51767 7.03275 6.2145C6.16342 6.91117 5.4615 7.782 4.927 8.827Z" fill="#5D5E5D"/>
</svg>
