<svg xmlns="http://www.w3.org/2000/svg" xmlns:xlink="http://www.w3.org/1999/xlink" width="500" zoomAndPan="magnify" viewBox="0 0 375 125.249995" height="167" preserveAspectRatio="xMidYMid meet" version="1.0"><defs><g/><clipPath id="8447ebc35a"><path d="M 95.179688 56.480469 L 110.847656 56.480469 L 110.847656 86.992188 L 95.179688 86.992188 Z M 95.179688 56.480469 " clip-rule="nonzero"/></clipPath><clipPath id="b0231dc7bd"><path d="M 106.953125 64.363281 C 104.742188 61.039062 101.601562 58.375 97.910156 56.667969 C 97.066406 56.28125 96.042969 56.621094 95.65625 57.441406 C 95.269531 58.261719 95.609375 59.238281 96.453125 59.628906 C 102.898438 62.609375 107.042969 68.964844 107.042969 75.84375 C 107.042969 78.78125 106.292969 81.695312 104.855469 84.292969 C 104.425781 85.089844 104.71875 86.09375 105.5625 86.503906 C 105.8125 86.640625 106.085938 86.683594 106.359375 86.683594 C 106.976562 86.683594 107.542969 86.367188 107.863281 85.820312 C 109.546875 82.765625 110.4375 79.328125 110.4375 75.84375 C 110.4375 71.765625 109.230469 67.78125 106.953125 64.363281 " clip-rule="nonzero"/></clipPath><clipPath id="59bc48397e"><path d="M 89 54.417969 L 92.707031 54.417969 L 92.707031 58 L 89 58 Z M 89 54.417969 " clip-rule="nonzero"/></clipPath><clipPath id="3758844aaa"><path d="M 91.007812 54.570312 L 90.894531 54.570312 C 89.960938 54.570312 89.1875 55.300781 89.1875 56.210938 C 89.1875 57.121094 89.9375 57.851562 90.894531 57.851562 L 90.988281 57.851562 C 91.921875 57.851562 92.671875 57.121094 92.695312 56.234375 C 92.71875 55.34375 91.941406 54.59375 91.007812 54.59375 " clip-rule="nonzero"/></clipPath><clipPath id="e2236ad847"><path d="M 66 65 L 81.574219 65 L 81.574219 95.238281 L 66 95.238281 Z M 66 65 " clip-rule="nonzero"/></clipPath><clipPath id="79c60d7fb6"><path d="M 80.28125 92.058594 C 73.835938 89.074219 69.691406 82.699219 69.691406 75.820312 C 69.691406 72.882812 70.441406 69.96875 71.878906 67.394531 C 72.3125 66.597656 71.992188 65.59375 71.171875 65.183594 C 70.351562 64.773438 69.304688 65.070312 68.871094 65.867188 C 67.1875 68.917969 66.296875 72.359375 66.296875 75.84375 C 66.296875 79.921875 67.503906 83.90625 69.78125 87.324219 C 71.992188 90.648438 75.136719 93.3125 78.824219 95.019531 C 79.050781 95.132812 79.304688 95.179688 79.554688 95.179688 C 80.191406 95.179688 80.78125 94.839844 81.078125 94.246094 C 81.488281 93.425781 81.125 92.445312 80.28125 92.058594 " clip-rule="nonzero"/></clipPath><clipPath id="41466caad1"><path d="M 84 93.589844 L 87.757812 93.589844 L 87.757812 97.300781 L 84 97.300781 Z M 84 93.589844 " clip-rule="nonzero"/></clipPath><clipPath id="e30c090169"><path d="M 85.816406 93.835938 L 85.726562 93.835938 C 84.792969 93.835938 84.015625 94.566406 84.015625 95.453125 C 84.015625 96.339844 84.769531 97.09375 85.703125 97.09375 L 85.816406 97.09375 C 86.75 97.09375 87.5 96.363281 87.5 95.453125 C 87.5 94.542969 86.75 93.8125 85.816406 93.8125 " clip-rule="nonzero"/></clipPath><clipPath id="2cb01e0387"><path d="M 30.035156 20.609375 L 117.445312 20.609375 L 117.445312 103.894531 L 30.035156 103.894531 Z M 30.035156 20.609375 " clip-rule="nonzero"/></clipPath><clipPath id="339b9cc0cb"><path d="M 88.367188 100.371094 C 74.316406 100.371094 62.90625 89.371094 62.90625 75.84375 C 62.90625 62.316406 74.316406 51.292969 88.367188 51.292969 C 102.417969 51.292969 113.832031 62.292969 113.832031 75.820312 C 113.832031 89.347656 102.398438 100.371094 88.367188 100.371094 M 47.28125 91.535156 C 44.84375 91.535156 42.863281 89.621094 42.863281 87.277344 C 42.863281 84.929688 44.84375 83.019531 47.28125 83.019531 L 60.492188 83.019531 C 61.355469 86.09375 62.746094 88.960938 64.566406 91.535156 Z M 47.28125 71.242188 L 59.898438 71.242188 C 59.648438 72.722656 59.511719 74.273438 59.511719 75.820312 C 59.511719 77.164062 59.601562 78.460938 59.808594 79.738281 L 47.28125 79.738281 C 44.84375 79.738281 42.863281 77.824219 42.863281 75.480469 C 42.863281 73.132812 44.84375 71.21875 47.28125 71.21875 M 47.28125 59.445312 L 65.046875 59.445312 C 63.109375 61.996094 61.628906 64.867188 60.671875 67.964844 L 47.28125 67.964844 C 44.84375 67.964844 42.863281 66.050781 42.863281 63.703125 C 42.863281 61.359375 44.84375 59.445312 47.28125 59.445312 M 47.28125 47.671875 L 88.867188 47.671875 C 89.550781 47.671875 90.210938 47.828125 90.804688 48.101562 C 90.007812 48.035156 89.1875 48.011719 88.367188 48.011719 C 80.394531 48.011719 73.175781 51.132812 67.9375 56.1875 L 47.28125 56.1875 C 44.84375 56.1875 42.863281 54.273438 42.863281 51.929688 C 42.863281 49.582031 44.84375 47.671875 47.28125 47.671875 M 38.101562 32.636719 C 35.664062 32.636719 33.683594 30.726562 33.683594 28.378906 C 33.683594 26.035156 35.664062 24.121094 38.101562 24.121094 L 79.691406 24.121094 C 82.125 24.121094 84.109375 26.035156 84.109375 28.378906 C 84.109375 30.726562 82.125 32.636719 79.691406 32.636719 Z M 99.730469 35.917969 C 102.167969 35.917969 104.152344 37.832031 104.152344 40.175781 C 104.152344 42.523438 102.167969 44.4375 99.730469 44.4375 L 58.144531 44.4375 C 55.707031 44.4375 53.726562 42.523438 53.726562 40.175781 C 53.726562 37.832031 55.707031 35.917969 58.144531 35.917969 Z M 96.066406 49.035156 C 95.859375 48.558594 95.609375 48.125 95.3125 47.691406 L 99.730469 47.691406 C 104.035156 47.691406 107.542969 44.324219 107.542969 40.175781 C 107.542969 36.03125 104.035156 32.660156 99.730469 32.660156 L 86.136719 32.660156 C 87 31.453125 87.5 29.996094 87.5 28.402344 C 87.5 24.257812 83.996094 20.886719 79.691406 20.886719 L 38.101562 20.886719 C 33.796875 20.863281 30.289062 24.234375 30.289062 28.378906 C 30.289062 32.523438 33.796875 35.894531 38.101562 35.894531 L 51.699219 35.894531 C 50.832031 37.101562 50.332031 38.582031 50.332031 40.15625 C 50.332031 41.726562 50.832031 43.207031 51.699219 44.414062 L 47.28125 44.414062 C 42.976562 44.414062 39.46875 47.785156 39.46875 51.929688 C 39.46875 54.320312 40.628906 56.4375 42.429688 57.828125 C 40.628906 59.21875 39.46875 61.335938 39.46875 63.726562 C 39.46875 66.117188 40.628906 68.238281 42.429688 69.625 C 40.628906 71.015625 39.46875 73.132812 39.46875 75.523438 C 39.46875 77.917969 40.628906 80.035156 42.429688 81.421875 C 40.628906 82.8125 39.46875 84.929688 39.46875 87.324219 C 39.46875 91.46875 42.976562 94.839844 47.28125 94.839844 L 67.300781 94.839844 C 72.5625 100.257812 80.078125 103.675781 88.390625 103.675781 C 104.308594 103.675781 117.246094 91.195312 117.246094 75.867188 C 117.246094 63.113281 108.273438 52.316406 96.089844 49.058594 " clip-rule="nonzero"/></clipPath></defs><g clip-path="url(#8447ebc35a)"><g clip-path="url(#b0231dc7bd)"><path fill="#42ab4a" d="M 18.902344 9.476562 L 128.578125 9.476562 L 128.578125 115.027344 L 18.902344 115.027344 Z M 18.902344 9.476562 " fill-opacity="1" fill-rule="nonzero"/></g></g><g clip-path="url(#59bc48397e)"><g clip-path="url(#3758844aaa)"><path fill="#42ab4a" d="M 18.902344 9.476562 L 128.578125 9.476562 L 128.578125 115.027344 L 18.902344 115.027344 Z M 18.902344 9.476562 " fill-opacity="1" fill-rule="nonzero"/></g></g><g clip-path="url(#e2236ad847)"><g clip-path="url(#79c60d7fb6)"><path fill="#42ab4a" d="M 18.902344 9.476562 L 128.578125 9.476562 L 128.578125 115.027344 L 18.902344 115.027344 Z M 18.902344 9.476562 " fill-opacity="1" fill-rule="nonzero"/></g></g><g clip-path="url(#41466caad1)"><g clip-path="url(#e30c090169)"><path fill="#42ab4a" d="M 18.902344 9.476562 L 128.578125 9.476562 L 128.578125 115.027344 L 18.902344 115.027344 Z M 18.902344 9.476562 " fill-opacity="1" fill-rule="nonzero"/></g></g><g clip-path="url(#2cb01e0387)"><g clip-path="url(#339b9cc0cb)"><path fill="#42ab4a" d="M 18.902344 9.476562 L 128.578125 9.476562 L 128.578125 115.027344 L 18.902344 115.027344 Z M 18.902344 9.476562 " fill-opacity="1" fill-rule="nonzero"/></g></g><g fill="#2ea6de" fill-opacity="1"><g transform="translate(139.54973, 61.109732)"><g><path d="M 7.296875 -31.03125 L 7.796875 -31.03125 L 11.3125 -30.515625 L 34.078125 -30.515625 L 34.21875 -30.171875 C 33.695312 -29.765625 33.226562 -29.347656 32.8125 -28.921875 C 32.144531 -28.253906 31.664062 -27.734375 31.375 -27.359375 C 31.21875 -27.160156 30.988281 -26.890625 30.6875 -26.546875 C 30.394531 -26.210938 30.175781 -25.953125 30.03125 -25.765625 C 29.925781 -25.660156 29.738281 -25.429688 29.46875 -25.078125 C 29.207031 -24.722656 29.007812 -24.46875 28.875 -24.3125 L 13.453125 -4.5 L 13.515625 -4.390625 L 19.109375 -4.640625 C 20.210938 -4.671875 21.578125 -4.773438 23.203125 -4.953125 C 25.046875 -5.148438 26.367188 -5.316406 27.171875 -5.453125 C 28.515625 -5.660156 29.675781 -5.878906 30.65625 -6.109375 C 31.550781 -6.273438 32.472656 -6.507812 33.421875 -6.8125 L 33.859375 -6.5 L 29.65625 0 L 2.859375 0 L 2.765625 -0.34375 L 22.53125 -25.71875 L 22.46875 -25.828125 L 14.3125 -25.5 C 13.0625 -25.414062 12.160156 -25.351562 11.609375 -25.3125 C 10.898438 -25.25 9.878906 -25.117188 8.546875 -24.921875 C 8.253906 -24.847656 7.34375 -24.644531 5.8125 -24.3125 C 4.832031 -24.082031 4.164062 -23.867188 3.8125 -23.671875 L 3.390625 -23.96875 Z M 7.296875 -31.03125 "/></g></g></g><g fill="#2ea6de" fill-opacity="1"><g transform="translate(176.50356, 61.109732)"><g><path d="M 32.984375 -23.921875 L 32.515625 -23.625 C 31.910156 -24.050781 31.273438 -24.367188 30.609375 -24.578125 C 29.847656 -24.816406 29 -25.007812 28.0625 -25.15625 C 26.8125 -25.351562 25.8125 -25.46875 25.0625 -25.5 C 23.320312 -25.582031 22.253906 -25.625 21.859375 -25.625 L 11.609375 -25.625 L 11.609375 -17.859375 L 29.96875 -17.859375 L 30.171875 -17.46875 L 26.875 -11.75 L 26.359375 -11.75 C 26.078125 -11.976562 25.710938 -12.164062 25.265625 -12.3125 C 24.921875 -12.40625 24.390625 -12.519531 23.671875 -12.65625 C 22.941406 -12.78125 22.335938 -12.863281 21.859375 -12.90625 C 21.421875 -12.9375 20.800781 -12.953125 20 -12.953125 L 11.609375 -12.953125 L 11.609375 -4.90625 L 19.0625 -4.90625 C 19.46875 -4.90625 20.566406 -4.941406 22.359375 -5.015625 C 24.160156 -5.078125 25.523438 -5.15625 26.453125 -5.25 C 27.660156 -5.382812 29.046875 -5.585938 30.609375 -5.859375 C 31.910156 -6.109375 33.050781 -6.40625 34.03125 -6.75 L 34.421875 -6.453125 L 30.609375 0 L 4.25 0 L 4.25 -0.484375 C 4.59375 -0.828125 4.863281 -1.398438 5.0625 -2.203125 C 5.25 -2.953125 5.394531 -3.789062 5.5 -4.71875 C 5.539062 -5.613281 5.585938 -6.492188 5.640625 -7.359375 L 5.640625 -25.828125 C 5.578125 -26.472656 5.53125 -26.984375 5.5 -27.359375 C 5.382812 -27.929688 5.238281 -28.421875 5.0625 -28.828125 C 4.84375 -29.296875 4.570312 -29.695312 4.25 -30.03125 L 4.25 -30.515625 L 30.96875 -30.515625 Z M 32.984375 -23.921875 "/></g></g></g><g fill="#2ea6de" fill-opacity="1"><g transform="translate(212.651391, 61.109732)"><g><path d="M 16.703125 -17.46875 L 17.21875 -17.46875 C 17.53125 -17.238281 17.960938 -17.097656 18.515625 -17.046875 C 19.097656 -16.984375 19.59375 -16.953125 20 -16.953125 L 24.765625 -16.953125 C 26.429688 -16.953125 27.753906 -17.367188 28.734375 -18.203125 C 29.722656 -19.046875 30.21875 -20.09375 30.21875 -21.34375 C 30.21875 -22.613281 29.722656 -23.648438 28.734375 -24.453125 C 27.640625 -25.234375 26.316406 -25.625 24.765625 -25.625 L 11.65625 -25.625 L 11.65625 -9.265625 C 11.65625 -8.554688 11.671875 -7.921875 11.703125 -7.359375 C 11.703125 -6.390625 11.765625 -5.507812 11.890625 -4.71875 C 11.972656 -3.9375 12.160156 -3.097656 12.453125 -2.203125 C 12.679688 -1.453125 13.050781 -0.878906 13.5625 -0.484375 L 13.5625 0 L 4 0 L 4 -0.484375 C 4.40625 -0.847656 4.707031 -1.421875 4.90625 -2.203125 C 5.101562 -2.953125 5.25 -3.789062 5.34375 -4.71875 C 5.414062 -5.300781 5.484375 -6.179688 5.546875 -7.359375 L 5.546875 -25.828125 C 5.484375 -26.472656 5.414062 -26.984375 5.34375 -27.359375 C 5.226562 -27.929688 5.082031 -28.421875 4.90625 -28.828125 C 4.707031 -29.265625 4.40625 -29.664062 4 -30.03125 L 4 -30.515625 L 24.765625 -30.515625 C 26.429688 -30.515625 27.929688 -30.316406 29.265625 -29.921875 C 30.648438 -29.460938 31.816406 -28.863281 32.765625 -28.125 C 33.753906 -27.34375 34.523438 -26.40625 35.078125 -25.3125 C 35.597656 -24.25 35.859375 -22.96875 35.859375 -21.46875 C 35.859375 -20.300781 35.695312 -19.234375 35.375 -18.265625 C 35.050781 -17.304688 34.515625 -16.40625 33.765625 -15.5625 C 33.078125 -14.78125 32.210938 -14.113281 31.171875 -13.5625 C 30.109375 -12.988281 28.90625 -12.601562 27.5625 -12.40625 L 27.5 -12.21875 L 29.921875 -9.0625 C 31.066406 -7.5625 32.378906 -5.941406 33.859375 -4.203125 C 35.046875 -2.796875 36.203125 -1.679688 37.328125 -0.859375 L 37.328125 -0.34375 C 36.597656 0.09375 35.960938 0.367188 35.421875 0.484375 C 34.609375 0.660156 33.957031 0.75 33.46875 0.75 C 32.476562 0.75 31.539062 0.566406 30.65625 0.203125 C 29.90625 -0.0976562 29.171875 -0.515625 28.453125 -1.046875 C 27.859375 -1.484375 27.316406 -2.019531 26.828125 -2.65625 L 25.625 -4.203125 L 19.90625 -12.015625 L 14.046875 -12.015625 L 13.84375 -12.40625 Z M 16.703125 -17.46875 "/></g></g></g><g fill="#2ea6de" fill-opacity="1"><g transform="translate(252.462854, 61.109732)"><g><path d="M 1 0 L 1 -0.484375 C 1.34375 -0.773438 1.804688 -1.347656 2.390625 -2.203125 C 3.046875 -3.210938 3.535156 -4.050781 3.859375 -4.71875 C 3.941406 -4.863281 4.140625 -5.253906 4.453125 -5.890625 C 4.773438 -6.535156 5.007812 -7.023438 5.15625 -7.359375 C 5.300781 -7.660156 5.46875 -8.019531 5.65625 -8.4375 C 5.851562 -8.851562 5.988281 -9.128906 6.0625 -9.265625 L 12.796875 -24.359375 C 12.847656 -24.453125 12.945312 -24.664062 13.09375 -25 C 13.238281 -25.332031 13.359375 -25.609375 13.453125 -25.828125 C 13.648438 -26.328125 13.800781 -26.835938 13.90625 -27.359375 C 14.019531 -27.910156 14.050781 -28.398438 14 -28.828125 C 13.945312 -29.253906 13.734375 -29.65625 13.359375 -30.03125 L 13.359375 -30.515625 L 24.359375 -30.515625 L 24.359375 -30.03125 C 24.097656 -29.664062 23.96875 -29.265625 23.96875 -28.828125 C 23.96875 -28.253906 24.03125 -27.75 24.15625 -27.3125 C 24.300781 -26.726562 24.488281 -26.210938 24.71875 -25.765625 C 24.882812 -25.316406 25.082031 -24.832031 25.3125 -24.3125 L 32.21875 -9.265625 C 32.28125 -9.109375 32.414062 -8.8125 32.625 -8.375 C 32.832031 -7.9375 33 -7.578125 33.125 -7.296875 C 33.332031 -6.847656 33.78125 -5.988281 34.46875 -4.71875 C 34.84375 -3.945312 35.320312 -3.109375 35.90625 -2.203125 C 36.300781 -1.484375 36.742188 -0.910156 37.234375 -0.484375 L 37.234375 0 L 28.0625 0 L 28.0625 -0.484375 C 28.3125 -0.828125 28.460938 -1.234375 28.515625 -1.703125 C 28.515625 -2.148438 28.460938 -2.617188 28.359375 -3.109375 C 28.066406 -3.984375 27.90625 -4.460938 27.875 -4.546875 C 27.695312 -4.898438 27.476562 -5.367188 27.21875 -5.953125 L 26.671875 -7.15625 L 11.3125 -7.15625 L 10.796875 -5.953125 C 10.703125 -5.691406 10.523438 -5.238281 10.265625 -4.59375 C 10.035156 -4.039062 9.878906 -3.546875 9.796875 -3.109375 C 9.660156 -2.691406 9.628906 -2.222656 9.703125 -1.703125 C 9.742188 -1.222656 9.929688 -0.816406 10.265625 -0.484375 L 10.265625 0 Z M 19 -24.109375 L 18.8125 -24.109375 L 13.515625 -12.0625 L 24.453125 -12.0625 Z M 19 -24.109375 "/></g></g></g><g fill="#2ea6de" fill-opacity="1"><g transform="translate(290.662319, 61.109732)"><g><path d="M 14.265625 -14.515625 L 14.265625 -14.703125 L 22.578125 -24.359375 C 22.617188 -24.398438 22.722656 -24.523438 22.890625 -24.734375 C 23.054688 -24.953125 23.210938 -25.144531 23.359375 -25.3125 C 23.828125 -25.832031 24.21875 -26.351562 24.53125 -26.875 C 24.90625 -27.488281 25.179688 -28.050781 25.359375 -28.5625 C 25.523438 -29.164062 25.457031 -29.65625 25.15625 -30.03125 L 25.15625 -30.515625 L 35.171875 -30.515625 L 35.171875 -30.03125 L 29.65625 -24.3125 L 22.015625 -15.421875 L 22.015625 -15.21875 L 28.21875 -9.0625 C 30.132812 -7.144531 32.15625 -5.363281 34.28125 -3.71875 C 36.113281 -2.28125 37.59375 -1.273438 38.71875 -0.703125 L 38.71875 -0.34375 C 38.113281 0.0507812 37.460938 0.328125 36.765625 0.484375 C 35.953125 0.660156 35.300781 0.75 34.8125 0.75 C 33.488281 0.75 32.304688 0.582031 31.265625 0.25 C 30.046875 -0.144531 29.0625 -0.578125 28.3125 -1.046875 C 27.5625 -1.453125 26.75 -2.039062 25.875 -2.8125 C 24.875 -3.675781 24.1875 -4.3125 23.8125 -4.71875 Z M 12.265625 -9.265625 C 12.265625 -8.554688 12.28125 -7.921875 12.3125 -7.359375 C 12.3125 -6.390625 12.378906 -5.507812 12.515625 -4.71875 C 12.617188 -3.707031 12.78125 -2.867188 13 -2.203125 C 13.238281 -1.390625 13.570312 -0.816406 14 -0.484375 L 14 0 L 4.25 0 L 4.25 -0.484375 C 4.757812 -0.878906 5.125 -1.453125 5.34375 -2.203125 C 5.625 -3.046875 5.828125 -3.882812 5.953125 -4.71875 C 6.023438 -5.300781 6.09375 -6.179688 6.15625 -7.359375 L 6.15625 -25.828125 C 6.09375 -26.472656 6.023438 -26.984375 5.953125 -27.359375 C 5.796875 -27.898438 5.59375 -28.390625 5.34375 -28.828125 C 5.125 -29.234375 4.757812 -29.632812 4.25 -30.03125 L 4.25 -30.515625 L 14 -30.515625 L 14 -30.03125 C 13.601562 -29.71875 13.269531 -29.316406 13 -28.828125 C 12.800781 -28.472656 12.640625 -27.984375 12.515625 -27.359375 C 12.378906 -26.859375 12.3125 -26.347656 12.3125 -25.828125 C 12.28125 -25.453125 12.265625 -24.960938 12.265625 -24.359375 Z M 12.265625 -9.265625 "/></g></g></g><g fill="#2ea6de" fill-opacity="1"><g transform="translate(329.618934, 61.109732)"><g><path d="M 12.265625 -9.265625 C 12.265625 -8.554688 12.28125 -7.921875 12.3125 -7.359375 C 12.3125 -6.390625 12.378906 -5.507812 12.515625 -4.71875 C 12.617188 -3.707031 12.78125 -2.867188 13 -2.203125 C 13.238281 -1.390625 13.570312 -0.816406 14 -0.484375 L 14 0 L 4.25 0 L 4.25 -0.484375 C 4.757812 -0.878906 5.125 -1.453125 5.34375 -2.203125 C 5.625 -3.046875 5.828125 -3.882812 5.953125 -4.71875 C 6.023438 -5.300781 6.09375 -6.179688 6.15625 -7.359375 L 6.15625 -25.828125 C 6.09375 -26.472656 6.023438 -26.984375 5.953125 -27.359375 C 5.796875 -27.898438 5.59375 -28.390625 5.34375 -28.828125 C 5.125 -29.234375 4.757812 -29.632812 4.25 -30.03125 L 4.25 -30.515625 L 14 -30.515625 L 14 -30.03125 C 13.601562 -29.71875 13.269531 -29.316406 13 -28.828125 C 12.800781 -28.472656 12.640625 -27.984375 12.515625 -27.359375 C 12.378906 -26.859375 12.3125 -26.347656 12.3125 -25.828125 C 12.28125 -25.453125 12.265625 -24.960938 12.265625 -24.359375 Z M 12.265625 -9.265625 "/></g></g></g><g fill="#46af4d" fill-opacity="1"><g transform="translate(150.383062, 95.561141)"><g><path d="M 5.078125 -17.1875 L 5.078125 -9.75 L 14.859375 -9.75 L 14.859375 -8.03125 L 5.078125 -8.03125 L 5.078125 0 L 3.078125 0 L 3.078125 -18.90625 L 16.046875 -18.90625 L 16.046875 -17.1875 Z M 5.078125 -17.1875 "/></g></g></g><g fill="#46af4d" fill-opacity="1"><g transform="translate(176.724612, 95.561141)"><g><path d="M 3.078125 -18.90625 L 5.078125 -18.90625 L 5.078125 0 L 3.078125 0 Z M 3.078125 -18.90625 "/></g></g></g><g fill="#46af4d" fill-opacity="1"><g transform="translate(194.123862, 95.561141)"><g><path d="M 18.890625 -18.90625 L 18.890625 0 L 17.234375 0 L 5.078125 -15.34375 L 5.078125 0 L 3.078125 0 L 3.078125 -18.90625 L 4.734375 -18.90625 L 16.90625 -3.5625 L 16.90625 -18.90625 Z M 18.890625 -18.90625 "/></g></g></g><g fill="#46af4d" fill-opacity="1"><g transform="translate(225.328297, 95.561141)"><g><path d="M 14.9375 -5.046875 L 4.40625 -5.046875 L 2.140625 0 L 0.046875 0 L 8.703125 -18.90625 L 10.671875 -18.90625 L 19.3125 0 L 17.203125 0 Z M 14.203125 -6.671875 L 9.671875 -16.828125 L 5.140625 -6.671875 Z M 14.203125 -6.671875 "/></g></g></g><g fill="#46af4d" fill-opacity="1"><g transform="translate(253.939194, 95.561141)"><g><path d="M 18.890625 -18.90625 L 18.890625 0 L 17.234375 0 L 5.078125 -15.34375 L 5.078125 0 L 3.078125 0 L 3.078125 -18.90625 L 4.734375 -18.90625 L 16.90625 -3.5625 L 16.90625 -18.90625 Z M 18.890625 -18.90625 "/></g></g></g><g fill="#46af4d" fill-opacity="1"><g transform="translate(285.143635, 95.561141)"><g><path d="M 11.296875 0.15625 C 9.421875 0.15625 7.726562 -0.253906 6.21875 -1.078125 C 4.71875 -1.910156 3.539062 -3.0625 2.6875 -4.53125 C 1.832031 -6 1.40625 -7.640625 1.40625 -9.453125 C 1.40625 -11.273438 1.832031 -12.921875 2.6875 -14.390625 C 3.539062 -15.859375 4.722656 -17.003906 6.234375 -17.828125 C 7.753906 -18.660156 9.445312 -19.078125 11.3125 -19.078125 C 12.71875 -19.078125 14.015625 -18.84375 15.203125 -18.375 C 16.398438 -17.90625 17.410156 -17.21875 18.234375 -16.3125 L 16.96875 -15.046875 C 15.488281 -16.546875 13.625 -17.296875 11.375 -17.296875 C 9.875 -17.296875 8.507812 -16.953125 7.28125 -16.265625 C 6.0625 -15.578125 5.101562 -14.640625 4.40625 -13.453125 C 3.71875 -12.265625 3.375 -10.929688 3.375 -9.453125 C 3.375 -7.972656 3.71875 -6.640625 4.40625 -5.453125 C 5.101562 -4.265625 6.0625 -3.328125 7.28125 -2.640625 C 8.507812 -1.960938 9.875 -1.625 11.375 -1.625 C 13.644531 -1.625 15.507812 -2.378906 16.96875 -3.890625 L 18.234375 -2.625 C 17.410156 -1.71875 16.398438 -1.023438 15.203125 -0.546875 C 14.003906 -0.078125 12.703125 0.15625 11.296875 0.15625 Z M 11.296875 0.15625 "/></g></g></g><g fill="#46af4d" fill-opacity="1"><g transform="translate(313.808573, 95.561141)"><g><path d="M 16.453125 -1.734375 L 16.453125 0 L 3.078125 0 L 3.078125 -18.90625 L 16.046875 -18.90625 L 16.046875 -17.1875 L 5.078125 -17.1875 L 5.078125 -10.453125 L 14.859375 -10.453125 L 14.859375 -8.75 L 5.078125 -8.75 L 5.078125 -1.734375 Z M 16.453125 -1.734375 "/></g></g></g></svg>